<svg
  xmlns="http://www.w3.org/2000/svg"
  viewBox="0 0 24 24"
  fill="none"
  stroke="#2563eb"
  strokeWidth="2"
  strokeLinecap="round"
  strokeLinejoin="round"
>
  <g opacity="0.6">
    <path d="M4 22h14" />
    <path d="M4 18h14" />
    <path d="M4 14h14" />
    <path d="M4 10h14" />
    <path d="M10.1 8.8 8.1 4.8 5.4 3.2C4.5 2.7 3.4 3 3 3.9L2 7.1" />
    <path d="m14 10-2 3 2 3" />
    <path d="M18 10-2 3 2 3" />
    <path d="m22 10-2 3 2 3" />
    <path d="M3 3.9c.4-.9 1.5-1.2 2.4-.7l2.7 1.6 2 4 .9.3.6-1.5.8.4-1 2.5-3.2.4c-1.2.2-2.3-.6-2.5-1.8L2 7.1" />
  </g>
  <path d="M8.1 4.8 12 12l-2.4 3.6" />
  <path d="M14.6 3.2 12 12l2.4 3.6" />
  <path d="M19.1 4.8 15 12l2.4 3.6" />
</svg>
